<svg xmlns="http://www.w3.org/2000/svg" xmlns:xlink="http://www.w3.org/1999/xlink" contentstyletype="text/css" height="1003px" preserveAspectRatio="none" style="width:1069px;height:1003px;background:#FFFFFF;" version="1.1" viewBox="0 0 1069 1003" width="1069px" zoomAndPan="magnify"><defs></defs><g><!--cluster Client (Front-End)--><g id="cluster_Client (Front-End)"><path d="M332.5,6 L472.5,6 A3.75,3.75 0 0 1 475,8.5 L482,28.2969 L503.5,28.2969 A2.5,2.5 0 0 1 506,30.7969 L506,90.8 A2.5,2.5 0 0 1 503.5,93.3 L332.5,93.3 A2.5,2.5 0 0 1 330,90.8 L330,8.5 A2.5,2.5 0 0 1 332.5,6 " fill="none" style="stroke:#000000;stroke-width:1.5;"></path><line style="stroke:#000000;stroke-width:1.5;" x1="330" x2="482" y1="28.2969" y2="28.2969"></line><text fill="#000000" font-family="sans-serif" font-size="14" font-weight="bold" lengthAdjust="spacing" textLength="139" x="334" y="20.9951">Client (Front-End)</text></g><!--cluster Web API (Back-End)--><g id="cluster_Web API (Back-End)"><path d="M8.5,142.3 L163.5,142.3 A3.75,3.75 0 0 1 166,144.8 L173,164.5969 L455.5,164.5969 A2.5,2.5 0 0 1 458,167.0969 L458,662.69 A2.5,2.5 0 0 1 455.5,665.19 L8.5,665.19 A2.5,2.5 0 0 1 6,662.69 L6,144.8 A2.5,2.5 0 0 1 8.5,142.3 " fill="none" style="stroke:#000000;stroke-width:1.5;"></path><line style="stroke:#000000;stroke-width:1.5;" x1="6" x2="173" y1="164.5969" y2="164.5969"></line><text fill="#000000" font-family="sans-serif" font-size="14" font-weight="bold" lengthAdjust="spacing" textLength="154" x="10" y="157.2951">Web API (Back-End)</text></g><!--cluster API Layer--><g id="cluster_API Layer"><rect fill="none" height="103.29" rx="2.5" ry="2.5" style="stroke:#181818;stroke-width:1.0;" width="388" x="38" y="193.3"></rect><text fill="#000000" font-family="sans-serif" font-size="14" font-weight="bold" lengthAdjust="spacing" textLength="74" x="195" y="208.2951">API Layer</text></g><!--cluster Service Layer--><g id="cluster_Service Layer"><rect fill="none" height="103.3" rx="2.5" ry="2.5" style="stroke:#181818;stroke-width:1.0;" width="339" x="38" y="361.59"></rect><text fill="#000000" font-family="sans-serif" font-size="14" font-weight="bold" lengthAdjust="spacing" textLength="108" x="153.5" y="376.5851">Service Layer</text></g><!--cluster Repository Layer--><g id="cluster_Repository Layer"><rect fill="none" height="103.3" rx="2.5" ry="2.5" style="stroke:#181818;stroke-width:1.0;" width="387" x="38" y="529.89"></rect><text fill="#000000" font-family="sans-serif" font-size="14" font-weight="bold" lengthAdjust="spacing" textLength="134" x="164.5" y="544.8851">Repository Layer</text></g><!--cluster Database--><g id="cluster_Database"><path d="M127.5,714.19 L201.5,714.19 A3.75,3.75 0 0 1 204,716.69 L211,736.4869 L525.5,736.4869 A2.5,2.5 0 0 1 528,738.9869 L528,994.28 A2.5,2.5 0 0 1 525.5,996.78 L127.5,996.78 A2.5,2.5 0 0 1 125,994.28 L125,716.69 A2.5,2.5 0 0 1 127.5,714.19 " fill="none" style="stroke:#000000;stroke-width:1.5;"></path><line style="stroke:#000000;stroke-width:1.5;" x1="125" x2="211" y1="736.4869" y2="736.4869"></line><text fill="#000000" font-family="sans-serif" font-size="14" font-weight="bold" lengthAdjust="spacing" textLength="73" x="129" y="729.1851">Database</text></g><!--cluster PostgreSQL Database--><g id="cluster_PostgreSQL Database"><rect fill="none" height="199.59" rx="2.5" ry="2.5" style="stroke:#181818;stroke-width:1.0;" width="339" x="157" y="765.19"></rect><text fill="#000000" font-family="sans-serif" font-size="14" font-weight="bold" lengthAdjust="spacing" textLength="171" x="241" y="780.1851">PostgreSQL Database</text></g><!--cluster External Communication--><g id="cluster_External Communication"><path d="M532.5,6 L723.5,6 A3.75,3.75 0 0 1 726,8.5 L733,28.2969 L1059.5,28.2969 A2.5,2.5 0 0 1 1062,30.7969 L1062,90.8 A2.5,2.5 0 0 1 1059.5,93.3 L532.5,93.3 A2.5,2.5 0 0 1 530,90.8 L530,8.5 A2.5,2.5 0 0 1 532.5,6 " fill="none" style="stroke:#000000;stroke-width:1.5;"></path><line style="stroke:#000000;stroke-width:1.5;" x1="530" x2="733" y1="28.2969" y2="28.2969"></line><text fill="#000000" font-family="sans-serif" font-size="14" font-weight="bold" lengthAdjust="spacing" textLength="190" x="534" y="20.9951">External Communication</text></g><!--entity Client--><g id="elem_Client"><rect fill="#F1F1F1" height="36.2969" rx="2.5" ry="2.5" style="stroke:#181818;stroke-width:0.5;" width="144" x="346" y="41"></rect><text fill="#000000" font-family="sans-serif" font-size="14" lengthAdjust="spacing" textLength="124" x="356" y="63.9951">ReactJS Front-End</text></g><!--entity GamesController--><g id="elem_GamesController"><rect fill="#F1F1F1" height="36.2969" rx="2.5" ry="2.5" style="stroke:#181818;stroke-width:0.5;" width="136" x="62" y="236.3"></rect><text fill="#000000" font-family="sans-serif" font-size="14" lengthAdjust="spacing" textLength="116" x="72" y="259.2951">GamesController</text></g><!--entity SessionsController--><g id="elem_SessionsController"><rect fill="#F1F1F1" height="36.2969" rx="2.5" ry="2.5" style="stroke:#181818;stroke-width:0.5;" width="150" x="233" y="236.3"></rect><text fill="#000000" font-family="sans-serif" font-size="14" lengthAdjust="spacing" textLength="130" x="243" y="259.2951">SessionsController</text></g><!--entity GameService--><g id="elem_GameService"><rect fill="#F1F1F1" height="36.2969" rx="2.5" ry="2.5" style="stroke:#181818;stroke-width:0.5;" width="111" x="62.5" y="404.59"></rect><text fill="#000000" font-family="sans-serif" font-size="14" lengthAdjust="spacing" textLength="91" x="72.5" y="427.5851">GameService</text></g><!--entity SessionService--><g id="elem_SessionService"><rect fill="#F1F1F1" height="36.2969" rx="2.5" ry="2.5" style="stroke:#181818;stroke-width:0.5;" width="125" x="208.5" y="404.59"></rect><text fill="#000000" font-family="sans-serif" font-size="14" lengthAdjust="spacing" textLength="105" x="218.5" y="427.5851">SessionService</text></g><!--entity GameRepository--><g id="elem_GameRepository"><rect fill="#F1F1F1" height="36.2969" rx="2.5" ry="2.5" style="stroke:#181818;stroke-width:0.5;" width="135" x="62.5" y="572.89"></rect><text fill="#000000" font-family="sans-serif" font-size="14" lengthAdjust="spacing" textLength="115" x="72.5" y="595.8851">GameRepository</text></g><!--entity SessionRepository--><g id="elem_SessionRepository"><rect fill="#F1F1F1" height="36.2969" rx="2.5" ry="2.5" style="stroke:#181818;stroke-width:0.5;" width="149" x="232.5" y="572.89"></rect><text fill="#000000" font-family="sans-serif" font-size="14" lengthAdjust="spacing" textLength="129" x="242.5" y="595.8851">SessionRepository</text></g><!--entity Games Table--><g id="elem_Games Table"><rect fill="#F1F1F1" height="36.2969" rx="2.5" ry="2.5" style="stroke:#181818;stroke-width:0.5;" width="111" x="181.5" y="808.19"></rect><text fill="#000000" font-family="sans-serif" font-size="14" lengthAdjust="spacing" textLength="91" x="191.5" y="831.1851">Games Table</text></g><!--entity Sessions Table--><g id="elem_Sessions Table"><rect fill="#F1F1F1" height="36.2969" rx="2.5" ry="2.5" style="stroke:#181818;stroke-width:0.5;" width="125" x="327.5" y="808.19"></rect><text fill="#000000" font-family="sans-serif" font-size="14" lengthAdjust="spacing" textLength="105" x="337.5" y="831.1851">Sessions Table</text></g><!--entity SessionNumbers Table--><g id="elem_SessionNumbers Table"><rect fill="#F1F1F1" height="36.2969" rx="2.5" ry="2.5" style="stroke:#181818;stroke-width:0.5;" width="180" x="181" y="904.48"></rect><text fill="#000000" font-family="sans-serif" font-size="14" lengthAdjust="spacing" textLength="160" x="191" y="927.4751">SessionNumbers Table</text></g><!--entity Docker Container for Back-End--><g id="elem_Docker Container for Back-End"><rect fill="#F1F1F1" height="36.2969" rx="2.5" ry="2.5" style="stroke:#181818;stroke-width:0.5;" width="233" x="545.5" y="41"></rect><text fill="#000000" font-family="sans-serif" font-size="14" lengthAdjust="spacing" textLength="213" x="555.5" y="63.9951">Docker Container for Back-End</text></g><!--entity Docker Container for Database--><g id="elem_Docker Container for Database"><rect fill="#F1F1F1" height="36.2969" rx="2.5" ry="2.5" style="stroke:#181818;stroke-width:0.5;" width="233" x="813.5" y="41"></rect><text fill="#000000" font-family="sans-serif" font-size="14" lengthAdjust="spacing" textLength="213" x="823.5" y="63.9951">Docker Container for Database</text></g><!--link Client to API Layer--><g id="link_Client_API Layer"><path d="M361.14,77.75 C332.13,89.6 306.32,106.63 324,126.3 C335.21,138.76 386.84,122.76 399,134.3 C408.57,143.385 414.5806,155.2144 418.2041,167.887 C420.0158,174.2234 421.2307,180.7705 421.9954,187.2908 C422.1865,188.9209 422.3495,190.5493 422.4867,192.1723 C422.5038,192.3752 422.0384,186.5974 422.0548,186.8001 " fill="none" id="Client-to-API Layer" style="stroke:#181818;stroke-width:1.0;"></path><polygon fill="#181818" points="422.5369,192.7807,425.8007,183.4884,422.1351,187.7969,417.8266,184.1313,422.5369,192.7807" style="stroke:#181818;stroke-width:1.0;"></polygon><text fill="#000000" font-family="sans-serif" font-size="13" lengthAdjust="spacing" textLength="140" x="325" y="122.3669">Makes HTTP Requests</text></g><!--link API Layer to Client--><g id="link_API Layer_Client"><path d="M426.0105,244.4388 C427.4994,242.6772 429.1471,240.6829 430.9105,238.4795 C437.9641,229.6659 446.8694,217.5056 454.8713,203.4987 C470.875,175.485 483.265,140.085 470,109.3 C464.59,96.75 458.8626,89.723 448.8026,81.443 " fill="none" id="API Layer-to-Client" style="stroke:#181818;stroke-width:1.0;"></path><polygon fill="#181818" points="444.17,77.63,448.577,86.4379,448.0305,80.8075,453.6609,80.261,444.17,77.63" style="stroke:#181818;stroke-width:1.0;"></polygon><text fill="#000000" font-family="sans-serif" font-size="13" lengthAdjust="spacing" textLength="106" x="475" y="122.3669">Sends Response</text></g><!--link API Layer to Service Layer--><g id="link_API Layer_Service Layer"><path d="M405.7685,296.9394 C405.6055,297.4927 405.4415,298.0492 405.2766,298.609 C404.9468,299.7284 404.6132,300.8605 404.2762,302.0042 C403.6023,304.2915 402.9147,306.625 402.2163,308.9954 C399.4227,318.4769 396.455,328.5488 393.4875,338.62 C387.5525,358.7625 383.314,373.1472 378.7734,388.5565 " fill="none" id="API Layer-to-Service Layer" style="stroke:#181818;stroke-width:1.0;"></path><polygon fill="#181818" points="377.0775,394.3119,383.4582,386.8095,378.4908,389.5158,375.7845,384.5483,377.0775,394.3119" style="stroke:#181818;stroke-width:1.0;"></polygon><text fill="#000000" font-family="sans-serif" font-size="13" lengthAdjust="spacing" textLength="150" x="398" y="333.6569">Handles Business Logic</text></g><!--link Service Layer to Repository Layer--><g id="link_Service Layer_Repository Layer"><path d="M377.0873,448.7318 C377.1271,448.8563 377.1669,448.9811 377.2068,449.1061 C377.8456,451.1077 378.5091,453.193 379.1925,455.3488 C384.66,472.595 391.405,494.355 397,513.89 C398.1675,517.9637 399.3455,522.1675 400.5143,526.41 C400.8065,527.4706 399.5166,522.7459 399.8073,523.8099 " fill="none" id="Service Layer-to-Repository Layer" style="stroke:#181818;stroke-width:1.0;"></path><polygon fill="#181818" points="401.3888,529.5978,402.8752,519.8617,400.0709,524.7746,395.1581,521.9703,401.3888,529.5978" style="stroke:#181818;stroke-width:1.0;"></polygon><text fill="#000000" font-family="sans-serif" font-size="13" lengthAdjust="spacing" textLength="151" x="395" y="501.9569">Interacts with Database</text></g><!--link Repository Layer to PostgreSQL Database--><g id="link_Repository Layer_PostgreSQL Database"><path d="M416.2428,633.5641 C416.2199,633.7003 416.1967,633.8366 416.1733,633.9729 C416.1264,634.2456 416.0785,634.5184 416.0295,634.7914 C415.8334,635.8833 415.6202,636.9777 415.3887,638.0721 C414.4624,642.4496 413.2421,646.827 411.6495,651.0459 C408.4644,659.4838 403.79,667.2875 397,673.19 C383.85,684.62 330.68,668.25 319,681.19 C313.94,686.79 313.8,692.7 319,698.19 C330.4,710.22 455.64,695.14 468,706.19 C477.855,714.9925 484.0706,726.6781 487.8413,739.2947 C489.7266,745.603 491.0006,752.144 491.8127,758.6737 C492.0158,760.3061 492.1899,761.9379 492.3375,763.5651 C492.3744,763.9719 491.9147,758.3988 491.9483,758.805 " fill="none" id="Repository Layer-to-PostgreSQL Database" style="stroke:#181818;stroke-width:1.0;"></path><polygon fill="#181818" points="492.4433,764.7846,495.6872,755.4853,492.0308,759.8016,487.7145,756.1452,492.4433,764.7846" style="stroke:#181818;stroke-width:1.0;"></polygon><text fill="#000000" font-family="sans-serif" font-size="13" lengthAdjust="spacing" textLength="148" x="320" y="694.2569">Persists/Retrieves Data</text></g><!--link PostgreSQL Database to Repository Layer--><g id="link_PostgreSQL Database_Repository Layer"><path d="M487.7913,764.5612 C487.7768,764.329 487.7621,764.0965 487.7473,763.8636 C487.5097,760.1374 487.2236,756.3237 486.8814,752.4471 C486.1971,744.694 485.2883,736.6892 484.0934,728.6297 C481.7038,712.5106 478.17,696.1725 473,681.19 C465.605,659.765 452.235,638.1775 440.4138,621.6125 C437.4584,617.4712 434.5999,613.6439 431.9558,610.2115 C430.6337,608.4953 429.3652,606.8778 428.165,605.3692 C427.5649,604.6149 426.9818,603.8878 426.4177,603.1891 C426.1357,602.8398 425.8583,602.4976 425.5859,602.1627 C425.4498,601.9953 429.1086,606.478 428.9749,606.3142 " fill="none" id="PostgreSQL Database-to-Repository Layer" style="stroke:#181818;stroke-width:1.0;"></path><polygon fill="#181818" points="425.1811,601.6659,427.7729,611.1676,428.3426,605.5395,433.9707,606.1092,425.1811,601.6659" style="stroke:#181818;stroke-width:1.0;"></polygon><text fill="#000000" font-family="sans-serif" font-size="13" lengthAdjust="spacing" textLength="84" x="478" y="694.2569">Returns Data</text></g><!--SRC=[ZPDDJuD048Rl-oicdEgXySx1n7veQwh1qiJpG4VS57PnTwasfl_T0Kijb7vm86JtUNVUUNV8CLvXGk0DKqdAGU_1QENwOxMyyU1703-6OeSgIHcQ4yRkAOGzv05Q-9EAhH1vVTeRHN0VJA4tu9LJfvN033TawhtM_YDcP8TSoUWqBQakA2HhfLQ7N8LjgxSueirQndInx8xppbHi8DpxKLIvjj9fixbOx1yzLwzDRHk1Zz1XX9OwOWwqTOcXy7K6RQehS5XWb9xj_0hafSWYCWsmwNVyxSWeJ66eiwnGCaR7iWxt8nslo41vlIWLVxrh0_LKULVH-wvB1xivx_Vl6WFempEkkFd9OX70d3uBiiwAGw9IjER7XmcgPSgwGM6vdhKmqucCHHkinCSZuSDKSGxyKrduakvZRrLqmDKPdPVfGy1XItPyEoTd9AtPKRajklcJRbXT65LhMytlalCX9BMqpDgSPu5-0G00]--></g></svg>